<svg width="124px" height="124px" viewBox="0 -50 700 700" xmlns="http://www.w3.org/2000/svg" xmlns:xlink="http://www.w3.org/1999/xlink" fill="#ffe600">
    <path d="M385.43 73.781c5.094 0 9.223-4.121 9.223-9.215V17.98c0-5.11-4.133-9.23-9.223-9.23a9.214 9.214 0 0 0-9.223 9.23v46.586a9.21 9.21 0 0 0 9.223 9.215zM260.63 95.48a9.211 9.211 0 0 0 7.438 3.781c1.89 0 3.804-.594 5.453-1.793 4.105-3.012 4.988-8.785 1.976-12.89l-27.57-37.563c-3.011-4.105-8.777-5.004-12.89-1.984-4.114 3.011-4.99 8.785-1.977 12.89zM495.36 84.578a9.21 9.21 0 0 0 1.977 12.891 9.223 9.223 0 0 0 5.441 1.793 9.204 9.204 0 0 0 7.445-3.781l27.57-37.562c3.02-4.106 2.125-9.88-1.976-12.891a9.21 9.21 0 0 0-12.891 1.984M267.16 180.47c.043.035.086.07.14.121l51.09 43.137c1.2 1.008 2.173 2.223 3.231 3.367.762.34 1.531.649 2.195 1.2 3.79 3.195 8.645 4.68 13.605 4.304 4.989-.43 9.504-2.746 12.688-6.527 3.45-3.485 4.946-7.57 4.762-12.082-.219-5.418-2.828-10.734-6.973-14.22l-25.895-21.862c-.027-.016-.043-.016-.05-.035l-37.32-31.535c-7.86-6.633-19.66-5.625-26.32 2.258-6.633 7.859-5.625 19.672 2.238 26.32z"/>
    <path d="M363.98 190.02c5.547 6.457 8.941 14.578 9.3 23.188.411 9.738-3.01 18.734-9.624 25.312-5.828 6.973-14.79 11.602-24.691 12.441-1.067.086-2.152.14-3.211.14-1.328 0-2.633-.202-3.945-.34.007.157.07.305.078.466.422 9.722-2.977 18.734-9.563 25.359-6.937 8.207-17.055 12.477-27.344 12.582 1.54 10.203-.98 20.984-8.12 29.48-5.173 6.097-11.927 10-19.146 11.848a37.099 37.099 0 0 1 4.192 14.289c.832 9.894-2.231 19.504-8.61 27.039-6.344 7.535-15.297 12.152-25.19 12.984-1.079.086-2.153.14-3.212.14-8.734 0-17.098-3.047-23.844-8.715l-28.699-24.184-98.488 87.836 101.48 111.36 135.04-129.54c2.16-1.882 5.082-2.668 7.84-2.066 18.91 3.762 34.844 6.36 49.812 5.313.156-.016.29-.036.445-.036 17-1.27 32.742-7.28 50.094-21.91l93.336-84.594s12.47-11.438 3.493-21.57c-4.805-5.433-10.641-9.379-17.09-11.438 9.816-13.484 9.597-32.473-1.63-45.762-4.812-5.722-11.12-9.773-18.183-11.762 7.832-13.195 6.894-30.504-3.543-42.91-5.766-6.832-13.648-11.242-22.426-12.66 3.91-11.855 2.879-26.453-6.825-35.613-9.8-9.23-25.418.121-25.418.121zM440.71 416.89c-14.141 11.945-27.57 19.094-41.004 22.934l126.94 111.06 89.484-110.93-101.21-90.301zM326.23 135.77c-4.473 6.684-5.68 16.766.867 22.285.016.016.028.035.043.05l22.977 19.399 37.992-30.47-35.156-16.405c-15.652-8.11-23.898.894-26.723 5.14z"/>
    <path d="m209.57 277.85 17.238 14.543h.008c.043.035.05.105.097.14l19.54 16.478c7.882 6.597 19.671 5.574 26.3-2.258 6.614-7.86 5.618-19.672-2.257-26.32l-36.758-31.07c-.028-.016-.063-.016-.098-.035l-.043-.051c-3.781-3.176-8.637-4.664-13.57-4.27-4.988.41-9.504 2.739-12.703 6.528-6.617 7.863-5.61 19.668 2.246 26.316zM229.07 196.88c-3.184 3.797-4.715 8.629-4.297 13.641.422 4.988 2.738 9.484 6.52 12.66l14.05 11.875c.044.035.079.035.106.07l36.961 31.22c7.84 6.613 19.688 5.624 26.348-2.239 3.422-3.465 4.918-7.57 4.715-12.082-.235-5.418-2.836-10.719-6.973-14.203l-51.074-43.137h-.008l-.086-.07c-7.894-6.59-19.629-5.575-26.262 2.265zM190.86 335.06l32.086 27.055c3.797 3.195 8.566 4.7 13.613 4.305 4.98-.43 9.469-2.746 12.652-6.512 3.219-3.816 4.75-8.629 4.332-13.625-.422-4.996-2.738-9.504-6.52-12.695l-12.417-10.457c-.016-.016-.036-.016-.051-.035l-.016-.035-19.863-16.746c-7.848-6.407-19.484-5.364-26.066 2.422-6.621 7.855-5.625 19.656 2.25 26.324z"/>
</svg>
