<svg width="124px" height="124px" viewBox="0 0 700 700" xmlns="http://www.w3.org/2000/svg" fill="#ffe600">
    <path d="M96.25 542.5h507.5a8.752 8.752 0 0 0 8.75-8.75v-297.5a8.752 8.752 0 0 0-8.75-8.75h-87.5V210a17.436 17.436 0 0 0-8.75-15.066V166.25c0-4.64-1.844-9.094-5.125-12.375s-7.734-5.125-12.375-5.125h-61.25V26.25A8.752 8.752 0 0 0 420 17.5H280a8.75 8.75 0 0 0-8.75 8.75v31.5l-27.004 28a27.353 27.353 0 0 0 0 38.621 27.759 27.759 0 0 0 27.004 6.879v17.5H210c-4.64 0-9.094 1.844-12.375 5.125s-5.125 7.734-5.125 12.375v28.684A17.437 17.437 0 0 0 183.75 210v17.5h-87.5a8.75 8.75 0 0 0-8.75 8.75v297.5a8.752 8.752 0 0 0 8.75 8.75zM472.5 166.25H490v26.25h-17.5zM463.75 210h35v17.5h-35zm-193.62-97.711a10.048 10.048 0 0 1-13.5-.352 9.859 9.859 0 0 1 .098-14l29.566-30.625a8.753 8.753 0 0 0 2.457-6.062V35h122.5v148.75a8.75 8.75 0 0 1-17.5 0v-17.5a8.75 8.75 0 0 0-17.5 0v17.5a8.75 8.75 0 0 1-17.5 0v-17.5a8.75 8.75 0 0 0-17.5 0v17.5a8.75 8.75 0 0 1-17.5 0v-17.5a8.75 8.75 0 0 0-17.5 0v17.5a8.75 8.75 0 0 1-17.5 0v-70A8.75 8.75 0 0 0 273 108.5zm-25.129 53.961h26.25v17.5a26.235 26.235 0 0 0 7.356 18.203A26.243 26.243 0 0 0 315 203.297a26.194 26.194 0 0 0 35 0 26.194 26.194 0 0 0 35 0 26.243 26.243 0 0 0 36.395-1.344 26.235 26.235 0 0 0 7.356-18.203v-17.5h26.25v28.684a17.437 17.437 0 0 0-8.75 15.066v17.5h-192.5V210a17.436 17.436 0 0 0-8.75-15.066zm-35 0h17.5v26.25h-17.5zm-8.75 43.75h35v17.5h-35zm-96.25 35h490v280h-490z"/>
    <path d="M568.75 262.5h-437.5a8.75 8.75 0 0 0-8.75 8.75v227.5a8.752 8.752 0 0 0 8.75 8.75h437.5a8.752 8.752 0 0 0 8.75-8.75v-227.5a8.752 8.752 0 0 0-8.75-8.75zM560 490H140V280h420z"/>
    <path d="M166.25 411.25a52.575 52.575 0 0 1 37.109 15.391 52.58 52.58 0 0 1 15.391 37.109 8.752 8.752 0 0 0 8.75 8.75h245a8.752 8.752 0 0 0 8.75-8.75 52.575 52.575 0 0 1 15.391-37.109 52.58 52.58 0 0 1 37.109-15.391 8.752 8.752 0 0 0 8.75-8.75v-35a8.752 8.752 0 0 0-8.75-8.75 52.575 52.575 0 0 1-37.109-15.391 52.58 52.58 0 0 1-15.391-37.109 8.752 8.752 0 0 0-8.75-8.75h-245a8.75 8.75 0 0 0-8.75 8.75 52.575 52.575 0 0 1-15.391 37.109 52.58 52.58 0 0 1-37.109 15.391 8.75 8.75 0 0 0-8.75 8.75v35a8.752 8.752 0 0 0 8.75 8.75zm8.75-35.543a70.183 70.183 0 0 0 40.723-19.984A70.175 70.175 0 0 0 235.707 315h228.59a70.183 70.183 0 0 0 19.984 40.723 70.175 70.175 0 0 0 40.723 19.984v18.586a70.183 70.183 0 0 0-40.723 19.984A70.175 70.175 0 0 0 464.297 455h-228.59a70.183 70.183 0 0 0-19.984-40.723A70.175 70.175 0 0 0 175 394.293zM525 455h-17.5v17.5h26.25a8.752 8.752 0 0 0 8.75-8.75V437.5H525zm0-122.5h17.5v-26.25a8.752 8.752 0 0 0-8.75-8.75H507.5V315H525zM175 315h17.5v-17.5h-26.25a8.75 8.75 0 0 0-8.75 8.75v26.25H175zm-8.75 157.5h26.25V455H175v-17.5h-17.5v26.25a8.752 8.752 0 0 0 8.75 8.75z"/>
    <path d="M350 437.5c24.125 0 43.75-23.547 43.75-52.5s-19.625-52.5-43.75-52.5-43.75 23.547-43.75 52.5 19.625 52.5 43.75 52.5zm0-87.5c14.473 0 26.25 15.699 26.25 35s-11.777 35-26.25 35-26.25-15.699-26.25-35 11.777-35 26.25-35z"/>
</svg>
