<svg width="700pt" height="700pt" viewBox="0 -50 700 700" xmlns="http://www.w3.org/2000/svg" fill="#ffe600">
    <path d="M294.56 229.71c-3.61-3.207-9.137-2.883-12.344.727l-70 78.75a8.741 8.741 0 0 0 0 11.617l70 78.75c3.25 3.421 8.629 3.652 12.156.515s3.934-8.504.914-12.133l-64.828-72.94 64.828-72.942c3.207-3.61 2.883-9.137-.726-12.344zm123.23.73a8.748 8.748 0 0 0-13.07 11.617l64.828 72.941-64.828 72.941a8.747 8.747 0 1 0 13.07 11.617l70-78.75a8.741 8.741 0 0 0 0-11.616zm-38.77-2.49c-4.582-1.52-9.531.953-11.062 5.531l-52.5 157.5c-1.523 4.59.957 9.551 5.55 11.078 4.59 1.527 9.552-.957 11.075-5.547l52.5-157.5a8.75 8.75 0 0 0-5.563-11.062z"/>
    <path d="M183.75 437.5h332.5a8.752 8.752 0 0 0 8.75-8.75v-227.5a8.752 8.752 0 0 0-8.75-8.75h-332.5a8.75 8.75 0 0 0-8.75 8.75v227.5a8.752 8.752 0 0 0 8.75 8.75zM192.5 210h315v210h-315z"/>
    <path d="M603.75 70H96.25a8.75 8.75 0 0 0-8.75 8.75v402.5a8.752 8.752 0 0 0 8.75 8.75h507.5a8.752 8.752 0 0 0 8.75-8.75V78.75a8.752 8.752 0 0 0-8.75-8.75zm-402.5 35c3.54 0 6.73 2.133 8.082 5.402a8.744 8.744 0 0 1-11.43 11.43 8.746 8.746 0 0 1-5.402-8.082 8.75 8.75 0 0 1 8.75-8.75zm-35 0c3.54 0 6.73 2.133 8.082 5.402a8.744 8.744 0 0 1-11.43 11.43 8.746 8.746 0 0 1-5.402-8.082 8.75 8.75 0 0 1 8.75-8.75zm-35 0c3.54 0 6.73 2.133 8.082 5.402a8.744 8.744 0 0 1-11.43 11.43 8.746 8.746 0 0 1-5.402-8.082 8.75 8.75 0 0 1 8.75-8.75zM595 472.5H105v-315h490z"/>
</svg>
