<svg width="120" height="120" viewBox="0 -50 700 700" xmlns="http://www.w3.org/2000/svg" fill="#ffe600">
    <path  d="M495.56 44.871a10.964 10.964 0 0 0-6.57 3.188l-137.82 141.13-132.29-135.47c-2.414-2.446-5.793-3.622-9.164-3.188a10.976 10.976 0 0 0-6.57 3.188l-79.548 81.637c-4.261 4.414-4.261 11.523 0 15.938l132.29 135.47-111.88 114.57v-.004a11.38 11.38 0 0 0-3.113 5.668l-20.23 94.387h-.004c-.785 3.757.344 7.671 2.996 10.39 2.656 2.72 6.477 3.872 10.148 3.067l91.996-20.895a10.981 10.981 0 0 0 5.531-3.012l111.88-114.57 132.29 135.47a10.94 10.94 0 0 0 7.868 3.364c2.957 0 5.789-1.211 7.87-3.364l79.548-81.637-.004.004c4.265-4.418 4.265-11.523 0-15.938l-132.29-135.47 137.82-141.14h.004a11.466 11.466 0 0 0 3.285-8.054c0-3.028-1.184-5.93-3.285-8.06l-71.766-73.487c-2.375-2.395-5.676-3.566-8.993-3.188zm1.21 27.27 56.028 57.375-28.016 28.688-56.027-57.375zm-285.85 5.668 124.51 127.5-63.983 65.52-36.488-37.363 10.895-11.156h.004c3.277-3.246 4.277-8.215 2.515-12.52-1.757-4.309-5.914-7.07-10.469-6.96a10.96 10.96 0 0 0-7.609 3.542L219.4 217.528l-28.359-29.043 28.188-28.863c3.3-3.266 4.293-8.281 2.488-12.605-1.804-4.324-6.027-7.058-10.617-6.875-2.89.117-5.62 1.39-7.61 3.543l-28.187 28.688-28.36-29.043 63.985-65.52zm242.27 38.957 56.028 57.375-270.11 276.6-56.027-57.375zm-30.261 177.97 124.51 127.5-63.984 65.52-28.531-29.043 28.188-28.863c3.367-3.414 4.242-8.645 2.168-13.012-2.074-4.363-6.629-6.895-11.332-6.29a11 11 0 0 0-6.57 3.364l-28.016 28.863-28.36-29.043 10.896-11.156v.004c3.523-3.387 4.492-8.723 2.394-13.18-2.098-4.46-6.777-7.008-11.559-6.3a10.987 10.987 0 0 0-6.574 3.367l-10.895 11.156-36.312-37.188 63.984-65.7zm-255.41 114.57 56.027 57.375-5.707 5.844-71.938 16.293 15.91-73.668z"/>
</svg>
