<svg width="124" height="124" viewBox="0 -50 700 700" xmlns="http://www.w3.org/2000/svg" fill="#ffe600">
    <path d="M350.01 176.42c34.023 0 64.84 13.809 87.148 36.113 20.492 20.457 33.797 48.086 35.863 78.781h120.58v-107.96c0-8.527-3.473-16.266-9.066-21.852-5.622-5.629-13.36-9.102-21.887-9.102h-105.91c-2.621-.03-5.2-1.257-6.825-3.547l-25.477-35.883h-148.87l-25.109 35.367a8.412 8.412 0 0 1-7.195 4.063h-105.91c-8.52 0-16.27 3.48-21.875 9.082-5.601 5.602-9.082 13.355-9.082 21.875v107.96h120.59c2.063-30.695 15.371-58.324 35.828-78.781 22.31-22.309 53.145-36.113 87.188-36.113zM106.4 308.12v107.96c0 8.508 3.492 16.258 9.094 21.859 5.601 5.602 13.355 9.094 21.859 9.094h425.29c8.328 0 15.914-3.32 21.488-8.703l.37-.39c5.602-5.603 9.095-13.356 9.095-21.86V308.12h-120.58c-2.063 30.703-15.371 58.332-35.828 78.79-22.31 22.308-53.141 36.112-87.184 36.112s-64.88-13.805-87.188-36.113l-.457-.496c-20.2-20.418-33.324-47.84-35.371-78.293zm350.11-8.098-.008-.304v-.22l.008-.077c-.078-29.293-11.992-55.805-31.188-75.012-19.254-19.262-45.891-31.188-75.309-31.188-29.406 0-56.043 11.926-75.309 31.19-19.223 19.224-31.133 45.767-31.191 75.087v.437c.059 29.13 11.805 55.512 30.777 74.7l.418.39c19.266 19.266 45.902 31.19 75.309 31.19s56.035-11.925 75.305-31.19c19.199-19.2 31.113-45.72 31.191-75.004zm-312.89-191.45h62.188a8.4 8.4 0 0 1 8.398 8.399v18.633h24.758l25.477-35.883a8.386 8.386 0 0 1 6.825-3.52l157.48-.027a8.402 8.402 0 0 1 7.195 4.062l25.109 35.367h101.61c13.102 0 25.035 5.371 33.699 14.023l.055.055c8.636 8.656 14.004 20.582 14.004 33.68v232.72c0 13.137-5.372 25.094-14.016 33.738l-.508.469c-8.614 8.36-20.344 13.547-33.23 13.547h-425.29c-13.137 0-25.094-5.371-33.738-14.016-8.645-8.645-14.016-20.602-14.016-33.738V183.36c0-13.121 5.379-25.055 14.016-33.707 8.207-8.196 19.32-13.453 31.598-14.004v-18.68a8.4 8.4 0 0 1 8.398-8.399zm53.785 16.801h-45.387v10.23h45.387zm307.44 86.72a8.4 8.4 0 0 1-8.398-8.4 8.4 8.4 0 0 1 8.398-8.397h57.234a8.4 8.4 0 0 1 8.398 8.398 8.4 8.4 0 0 1-8.398 8.398zm-154.83-2.883c24.941 0 47.574 10.133 63.965 26.512l.055.054c16.363 16.391 26.488 39.012 26.488 63.945 0 24.941-10.133 47.574-26.512 63.965l-.055.055c-16.391 16.363-39.012 26.488-63.945 26.488-24.941 0-47.574-10.133-63.965-26.512l-.055-.055c-16.363-16.39-26.488-39.012-26.488-63.945 0-24.94 10.133-47.574 26.512-63.965l.055-.055c16.391-16.363 39.012-26.488 63.945-26.488zm52.133 38.367c-13.32-13.328-31.762-21.57-52.133-21.57s-38.812 8.242-52.121 21.555c-13.348 13.34-21.59 31.78-21.59 52.152 0 20.37 8.242 38.812 21.555 52.12 13.34 13.348 31.781 21.59 52.152 21.59s38.812-8.242 52.121-21.555c13.348-13.34 21.59-31.78 21.59-52.152s-8.242-38.812-21.574-52.14z"/>
</svg>
