<svg width="124px" height="124px" viewBox="0 0 700 700" xmlns="http://www.w3.org/2000/svg" xmlns:xlink="http://www.w3.org/1999/xlink" fill="#ffe600">
    <path d="M620.96 105.14 524.855 9.031c-13.246-13.242-36.285-11.754-51.359 3.316l-354.47 354.47a7.473 7.473 0 0 0-.836 1.024 7.429 7.429 0 0 0-.773 1.39c-.02.043-.032.09-.051.137a7.12 7.12 0 0 0-.278.84l-46.852 180.49a7.439 7.439 0 0 0 1.938 7.125 7.441 7.441 0 0 0 7.125 1.937l180.49-46.852c.29-.074.574-.171.852-.28.039-.016.078-.028.113-.044.387-.16.75-.36 1.101-.578.102-.062.196-.129.293-.195.364-.25.711-.524 1.028-.84l354.47-354.46c15.074-15.078 16.562-38.117 3.316-51.363zM257.92 495.2l-56.305-56.305 302.62-302.62 56.305 56.305zm-66.82-66.82-56.305-56.305 302.62-302.62 56.305 56.305zm-62.887-41.863 115.27 115.27-155.68 40.41zm478.92-240.53-36.078 36.078-123.13-123.12 36.082-36.082c9.277-9.281 22.887-10.766 30.336-3.316l96.105 96.105c7.45 7.453 5.965 21.062-3.316 30.34z"/>
</svg>
