<svg width="80" height="80" viewBox="0 0 752 752" xmlns="http://www.w3.org/2000/svg">
    <g fill="#ffe600" stroke="#ffe600" stroke-width="2">
        <path d="M391 173.8h-39.535c-1.937 0-3.516 1.578-3.516 3.516s1.579 3.515 3.516 3.515H391a3.52 3.52 0 0 0 3.516-3.515c.07-1.938-1.508-3.516-3.516-3.516zM351.46 579.36h39.535c1.938 0 3.516-1.578 3.516-3.516s-1.579-3.515-3.516-3.515H351.46c-1.937 0-3.516 1.578-3.516 3.515s1.579 3.516 3.516 3.516zM268.87 381.96c33.008 0 59.844-26.836 59.844-59.844s-26.836-59.844-59.844-59.844-59.844 26.836-59.844 59.844 26.836 59.844 59.844 59.844zm0-7.031c-13.777 0-26.262-5.309-35.66-13.992 2.871-17.293 17.938-30.137 35.734-30.137 17.723 0 32.719 12.844 35.59 30.137-9.402 8.683-21.887 13.992-35.664 13.992zm0-105.62c29.133 0 52.812 23.68 52.812 52.812 0 12.344-4.305 23.605-11.336 32.648-5.309-18.082-21.957-30.926-41.402-30.926-19.516 0-36.234 12.914-41.547 30.926-7.105-8.969-11.336-20.305-11.336-32.648-.004-29.133 23.676-52.812 52.809-52.812z"/>
        <path d="M268.95 318.81c10.836 0 19.66-8.824 19.66-19.66s-8.824-19.66-19.66-19.66-19.66 8.824-19.66 19.66c-.074 10.836 8.75 19.66 19.66 19.66zm0-32.219c6.96 0 12.559 5.668 12.559 12.559 0 6.887-5.668 12.559-12.559 12.559-6.96 0-12.629-5.668-12.629-12.559 0-6.887 5.668-12.559 12.629-12.559zM332.02 395.66H209.75c-1.938 0-3.516 1.578-3.516 3.516s1.578 3.515 3.516 3.515h122.27c1.938 0 3.516-1.578 3.516-3.515s-1.579-3.516-3.516-3.516zM319.46 413.46h-97.152c-1.938 0-3.516 1.578-3.516 3.516s1.578 3.515 3.516 3.515h97.156c1.938 0 3.516-1.578 3.516-3.515s-1.582-3.516-3.52-3.516zM492.39 322.11v.719c-.215 1.433.43 2.87 1.648 3.586l25.902 15.426c.575.359 1.149.504 1.793.504.43 0 .86-.07 1.22-.215a3.502 3.502 0 0 0 2.151-2.223c1.938-5.742 2.872-11.77 2.872-17.797a56.059 56.059 0 0 0-24.254-46.137 3.41 3.41 0 0 0-3.086-.43c-1.004.36-1.868 1.149-2.223 2.153l-10.332 29.277c-.36 1.078-.215 2.297.504 3.23 2.516 3.442 3.805 7.531 3.805 11.906zm11.051-37.527c11.051 9.258 17.508 22.961 17.508 37.457 0 3.805-.43 7.606-1.293 11.266l-20.164-11.984c-.145-4.95-1.508-9.613-4.16-13.707zM431.75 289.25l25.832 15.355c.574.36 1.148.504 1.793.504s1.293-.145 1.793-.504c3.3-2.008 6.887-3.016 10.762-3.016 1.723.36 3.445-.644 4.02-2.296l9.687-27.555c.36-1.004.215-2.008-.285-2.942a3.629 3.629 0 0 0-2.442-1.723c-19.086-3.585-38.96 2.797-51.949 16.72-.718.788-1.078 1.867-.933 2.87.144 1.153.789 2.083 1.723 2.586zm45.781-15.859-7.46 21.168c-3.661.215-7.321 1.219-10.692 2.941l-20.09-11.984c10.258-9.18 24.25-13.629 38.242-12.125zM471.87 378.23c16 0 31.215-6.887 41.906-18.801.719-.79 1.004-1.867.86-2.871-.145-1.004-.79-1.938-1.649-2.512l-25.543-15.21c-1.219-.72-2.656-.645-3.805.144-3.445 2.441-7.535 3.66-11.695 3.66-11.336 0-20.523-9.184-20.523-20.523 0-.719.07-1.434.145-2.082.215-1.434-.43-2.871-1.649-3.586l-25.543-15.211c-.933-.504-2.007-.645-2.941-.285-1.004.36-1.793 1.078-2.152 2.082-2.223 5.957-3.371 12.344-3.371 19.086-.082 30.922 25.105 56.109 55.96 56.109zm-47.359-68.672 19.805 11.77v.79c0 15.21 12.344 27.554 27.555 27.554 4.879 0 9.613-1.293 13.777-3.73l19.805 11.84c-9.043 8.539-21.098 13.348-33.652 13.348-26.98 0-49.008-22.027-49.008-49.082.14-4.305.64-8.54 1.719-12.488zM442.3 532.5h33.582a3.52 3.52 0 0 0 3.516-3.516v-22.96a3.52 3.52 0 0 0-3.516-3.516H442.3a3.52 3.52 0 0 0-3.516 3.515v22.961a3.52 3.52 0 0 0 3.516 3.516zm3.516-22.891h26.55v15.859h-26.55zM380.23 478.11v50.945a3.52 3.52 0 0 0 3.516 3.516h33.582a3.52 3.52 0 0 0 3.515-3.516V478.11a3.52 3.52 0 0 0-3.515-3.516h-33.582c-1.938-.074-3.516 1.504-3.516 3.516zm7.031 3.516h26.551v43.844h-26.55zM358.78 496.05h-33.582a3.52 3.52 0 0 0-3.516 3.516v29.418a3.52 3.52 0 0 0 3.516 3.515h33.582a3.52 3.52 0 0 0 3.516-3.515v-29.418a3.52 3.52 0 0 0-3.516-3.516zm-3.516 29.418h-26.55v-22.387h26.55zM300.23 477.03h-33.582a3.52 3.52 0 0 0-3.516 3.516v48.434a3.52 3.52 0 0 0 3.516 3.515h33.582a3.52 3.52 0 0 0 3.516-3.515v-48.434a3.518 3.518 0 0 0-3.516-3.516zm-3.516 48.434h-26.55v-41.332h26.55zM575.55 512.55c-1.508 5.238-2.512 10.547-2.797 16-.36 5.383-.144 10.836 1.078 16.215 1.649-5.238 2.942-10.262 4.305-15.285l4.16-14.926 4.45-14.781c1.577-4.95 3.155-9.902 4.519-15.211-3.875 3.875-7.031 8.324-9.614 13.059-2.585 4.668-4.593 9.691-6.101 14.93zM215.13 522.09c-3.371-7.46-7.68-8.61-10.762-8.25-5.383.645-9.973 6.672-12.988 12.559-.215-6.457-1.004-13.133-2.727-19.734-2.796-10.691-11.336-43.34-31.859-38.316-3.73.934-6.672 3.3-8.468 6.816-6.961 13.633 4.02 40.898 4.09 41.188 6.671 16.434 12.27 24.398 16.718 30.781 2.942 4.16 5.239 7.536 7.106 12.125h-14.137c-1.937 0-3.515 1.579-3.515 3.516s1.578 3.516 3.515 3.516h5.094v34.8a3.52 3.52 0 0 0 3.516 3.516h28.703a3.52 3.52 0 0 0 3.515-3.515V566.29h5.094c1.937 0 3.516-1.579 3.516-3.516s-1.579-3.516-3.516-3.516h-8.324c10.117-7.53 22.746-20.953 15.43-37.168zm-40.184 21.023c-4.234-6.098-9.543-13.707-15.93-29.418-4.09-10.117-8.18-27.77-4.379-35.305.86-1.723 2.082-2.727 3.875-3.156.79-.215 1.578-.285 2.367-.285 8.18 0 15.07 11.05 20.953 33.508 4.305 16.504 2.368 34.156.215 45.422-.07.144-.144.359-.215.504-2.007-4.239-4.304-7.54-6.886-11.27zm20.953 54.535h-21.598v-31.285h21.598zm-7.606-39.25c.145-.79.36-1.648.504-2.582 2.223-6.027 5.024-13.922 5.957-18.656 1.22-6.098 7.032-15.93 10.406-16.289h.07c.934 0 2.298 1.578 3.446 4.16 7.098 15.715-13.426 29.348-20.383 33.367z"/>
        <path d="M176.67 512.26c-1.508-5.168-3.516-10.262-6.172-14.996-2.582-4.734-5.668-9.258-9.613-13.059 1.363 5.309 2.941 10.262 4.52 15.211l4.448 14.781 4.16 14.926c1.364 5.023 2.657 10.117 4.305 15.285 1.22-5.309 1.434-10.762 1.078-16.215-.214-5.383-1.222-10.766-2.726-15.934zM555.1 410.66V233.57a3.52 3.52 0 0 0-3.516-3.516h-32.648V150.84a3.52 3.52 0 0 0-3.515-3.515H227.18a3.52 3.52 0 0 0-3.516 3.515v81.801h-52.742a3.52 3.52 0 0 0-3.515 3.516v207.95a3.52 3.52 0 0 0 3.515 3.516h52.668v153.48a3.52 3.52 0 0 0 3.516 3.515h288.24a3.52 3.52 0 0 0 3.515-3.515v-186.92h32.648c2.012 0 3.59-1.579 3.59-3.516zM230.7 154.35h281.14v42.98H230.7zm-56.258 286.16V239.67h188.86v200.84zm337.39 157.14h-281.13v-43.055h281.14zm0-50.156h-281.13v-99.883h136.19a3.52 3.52 0 0 0 3.516-3.516v-207.95a3.52 3.52 0 0 0-3.516-3.515h-136.19v-28.2h281.14v25.618l-119.62-.004a3.52 3.52 0 0 0-3.516 3.515v177.09a3.52 3.52 0 0 0 3.516 3.516h119.61zm36.238-140.35H395.73v-170.06h152.34zM599.59 516.43c.145-.285 11.051-27.555 4.09-41.188-1.793-3.516-4.735-5.883-8.469-6.816-20.523-5.094-29.062 27.555-31.859 38.316-1.723 6.601-2.512 13.273-2.727 19.734-3.015-5.883-7.605-11.91-12.988-12.56-3.015-.359-7.39.79-10.762 8.25-7.32 16.216 5.309 29.634 15.355 37.169h-8.25c-1.937 0-3.515 1.578-3.515 3.515s1.578 3.516 3.515 3.516h5.094v34.8a3.52 3.52 0 0 0 3.516 3.516h28.629a3.52 3.52 0 0 0 3.515-3.515v-34.801h5.094c1.938 0 3.516-1.578 3.516-3.516s-1.578-3.515-3.516-3.515h-14.133c1.868-4.594 4.16-7.895 7.106-12.125 4.52-6.387 10.113-14.352 16.789-30.781zm-56.258 8.61c1.148-2.583 2.441-4.16 3.445-4.16h.07c3.372.359 9.184 10.187 10.407 16.288.933 4.735 3.66 12.63 5.957 18.656.214.934.359 1.793.504 2.582-6.965-4.02-27.484-17.652-20.383-33.367zm34.371 41.331v31.285h-21.598v-31.285zm-7.535-11.91c-.07-.144-.145-.359-.215-.504-2.152-11.266-4.09-28.918.215-45.422 5.883-22.53 12.773-33.508 20.953-33.508.789 0 1.578.07 2.367.286 1.723.43 2.941 1.433 3.875 3.156 3.805 7.535-.215 25.188-4.379 35.305-6.387 15.64-11.695 23.25-15.93 29.418-2.508 3.66-4.875 6.96-6.887 11.27z"/>
    </g>
</svg>
