<svg width="80" height="80" viewBox="0 0 752 752" xmlns="http://www.w3.org/2000/svg">
    <g fill="#ffe600">
        <path d="M328.91 384.1a8.468 8.468 0 0 0 6.484 3.684c.176.007.348.015.516.015a8.447 8.447 0 0 0 6.363-2.89l63.113-72.137c3.078-3.52 2.72-8.868-.797-11.938-3.52-3.075-8.867-2.723-11.938.796l-55.91 63.898-16.363-24.035c-2.628-3.863-7.894-4.863-11.754-2.234a8.464 8.464 0 0 0-2.234 11.758z"/>
        <path d="m175.82 342.43 32.938.238v29.152l-25.371.02c-4.676 0-8.457 3.793-8.453 8.469 0 4.668 3.789 8.453 8.465 8.453h.004l25.355-.016v72.238a8.464 8.464 0 0 0 8.464 8.465h44.918c2.118 18.113 17.551 32.219 36.22 32.219s34.097-14.102 36.214-32.22h142.05c3.829 16.032 18.277 27.993 35.473 27.993 17.188 0 31.621-11.957 35.45-27.992h28.55c4.676 0 8.457-3.79 8.457-8.465v-83.406c.004-.11.02-.219.02-.332a2.45 2.45 0 0 0-.02-.289v-2.14c0-1.075-.199-2.137-.597-3.13l-20.61-51.777a8.471 8.471 0 0 0-7.863-5.328h-11.87v-24.137a8.466 8.466 0 0 0-6.977-8.332l-80.094-14.266V258.8a8.464 8.464 0 0 0-8.465-8.464l-230.86.004a8.464 8.464 0 0 0-8.465 8.464v66.941l-32.812-.238h-.062a8.468 8.468 0 0 0-8.465 8.402c-.027 4.668 3.73 8.485 8.402 8.52zm122.54 142.31c-10.785 0-19.555-8.777-19.555-19.555 0-1.031.082-2.047.23-3.031.083-.492.18-.985.293-1.469.024-.094.043-.184.067-.281a19.6 19.6 0 0 1 .437-1.477c.024-.066.043-.133.07-.2a20.5 20.5 0 0 1 .606-1.519.072.072 0 0 0 .008-.027c2.86-6.309 8.98-10.797 16.016-11.465.031 0 .074-.004.11-.004a17.57 17.57 0 0 1 3.414 0c.03 0 .074.004.109.004 7.039.668 13.156 5.156 16.016 11.465.004.004.008.016.015.027.223.493.422 1.004.606 1.52.023.07.047.133.07.2.164.484.309.976.438 1.476l.066.281c.113.484.215.973.293 1.469.152.984.238 2 .238 3.031 0 10.777-8.77 19.555-19.547 19.555zm213.75-4.23c-10.785 0-19.555-8.762-19.555-19.531 0-10.785 8.77-19.555 19.555-19.555 10.766 0 19.531 8.769 19.531 19.555-.008 10.77-8.766 19.53-19.531 19.53zm35.461-27.988c-.027-.125-.066-.247-.098-.375-.05-.204-.105-.407-.16-.61-.094-.348-.195-.691-.297-1.039-.058-.2-.117-.398-.183-.598-.114-.359-.239-.71-.36-1.066-.066-.176-.125-.356-.187-.527-.16-.43-.332-.856-.504-1.278-.04-.09-.07-.18-.11-.27a31.54 31.54 0 0 0-.687-1.519c-.062-.125-.125-.242-.184-.37-.183-.376-.375-.74-.566-1.11a57.578 57.578 0 0 0-.824-1.445l-.32-.532a42.443 42.443 0 0 0-.567-.886 28.851 28.851 0 0 0-.98-1.406c-.106-.141-.207-.294-.317-.438a33.21 33.21 0 0 0-.863-1.094 2.39 2.39 0 0 0-.152-.195c-.352-.422-.711-.832-1.078-1.246-.098-.11-.204-.215-.305-.32-.274-.294-.543-.583-.824-.868-.141-.137-.286-.273-.422-.41a27.18 27.18 0 0 0-.766-.73c-.152-.141-.308-.286-.465-.422-.261-.23-.52-.461-.785-.684-.156-.133-.312-.266-.473-.398-.285-.23-.574-.454-.863-.684-.148-.11-.289-.223-.437-.332-.387-.29-.782-.567-1.18-.84-.05-.039-.106-.074-.156-.11a46.294 46.294 0 0 0-1.383-.89c-.137-.086-.285-.164-.422-.25-.332-.2-.668-.394-1.004-.582-.18-.094-.36-.195-.539-.285a35.287 35.287 0 0 0-.937-.485c-.196-.093-.383-.187-.579-.28a26.226 26.226 0 0 0-.953-.43c-.195-.086-.382-.165-.578-.247a18.01 18.01 0 0 0-1.043-.41l-.512-.199c-.488-.176-.976-.34-1.468-.496-.04-.016-.075-.023-.117-.04a47.252 47.252 0 0 0-1.614-.46 9.667 9.667 0 0 0-.508-.117 29.465 29.465 0 0 0-1.766-.39 31.762 31.762 0 0 0-1.722-.286c-.355-.05-.715-.098-1.074-.137-.219-.023-.438-.05-.652-.07a29.75 29.75 0 0 0-1.176-.09c-.188-.008-.375-.027-.559-.039a37.28 37.28 0 0 0-1.754-.043c-.586 0-1.175.016-1.754.043a12.96 12.96 0 0 0-.558.04c-.395.023-.785.05-1.176.089-.219.02-.437.047-.652.07-.36.04-.715.086-1.075.137-.222.027-.44.063-.66.098-.355.058-.71.125-1.062.195-.207.039-.418.082-.625.125-.383.082-.762.172-1.14.266-.173.039-.337.082-.509.117-.543.14-1.085.293-1.62.46-.04.009-.071.024-.11.04-.492.156-.984.32-1.473.504-.172.062-.34.129-.508.195-.351.133-.699.27-1.046.418-.196.082-.383.164-.575.246-.32.14-.64.29-.957.43-.195.094-.386.183-.578.281-.316.152-.629.316-.937.484-.18.094-.36.188-.54.286-.335.187-.675.386-1.007.582-.137.082-.281.164-.418.246a32.15 32.15 0 0 0-1.387.89c-.05.032-.098.075-.152.11a36.08 36.08 0 0 0-1.184.843c-.148.106-.289.22-.43.329-.292.226-.582.449-.867.687-.16.129-.316.262-.472.395-.266.222-.528.449-.79.687-.156.137-.308.281-.464.418a34.31 34.31 0 0 0-.766.734c-.14.137-.285.274-.418.41-.285.286-.555.575-.824.868-.098.11-.207.219-.309.328-.37.406-.722.82-1.078 1.246-.05.062-.097.129-.152.195-.293.36-.582.723-.863 1.098-.11.14-.215.293-.32.441-.216.297-.43.594-.634.895-.113.172-.226.34-.347.512a30.66 30.66 0 0 0-.567.882c-.109.18-.218.356-.32.532-.183.308-.363.62-.535.933-.094.172-.195.336-.285.512-.196.36-.38.73-.563 1.098a33.22 33.22 0 0 0-.875 1.89c-.043.098-.082.2-.125.297-.172.41-.336.828-.492 1.25l-.195.54c-.117.347-.242.695-.356 1.046-.066.203-.129.406-.187.606-.098.34-.2.683-.293 1.023-.059.207-.11.41-.16.625-.032.125-.07.246-.098.371h-20.074l-.008-121.04h35.793v45.746a8.464 8.464 0 0 0 8.465 8.465h66.848v66.809zm15.766-83.734h-54.074v-37.285h38.289zm-36.645-71.262v17.055h-70.141v-29.547zm-301.01-30.266h213.94v185.26l-107.05.003c-4.652-12.52-15.988-21.809-29.652-23.52-.137-.02-.273-.03-.418-.05a59.356 59.356 0 0 0-.906-.09c-.297-.028-.606-.051-.91-.07-.22-.016-.442-.028-.664-.04a38.892 38.892 0 0 0-1.657-.043c-.558 0-1.109.02-1.664.043-.222.008-.441.024-.664.04-.304.019-.605.042-.91.07-.305.023-.605.058-.91.09-.14.015-.281.03-.418.05-13.664 1.711-25 11-29.652 23.52h-38.47l.013-63.797 50.574-.039a8.457 8.457 0 0 0 8.453-8.468c0-4.676-3.79-8.457-8.465-8.457h-.004l-50.559.039v-29.012l32.84.238h.063c4.644 0 8.43-3.75 8.464-8.402.032-4.676-3.726-8.493-8.402-8.524l-32.961-.238-.004-58.602z"/>
    </g>
</svg>
