<svg width="80" height="80" viewBox="0 0 752 752" xmlns="http://www.w3.org/2000/svg">
    <path d="M243.18 161.41c-44.988 0-81.758 34.805-81.758 78.219v272.75c0 43.414 36.77 78.219 81.758 78.219h265.64c44.988 0 81.773-34.805 81.773-78.219v-272.75c0-43.414-36.785-78.219-81.773-78.219zm0 14.801h265.64c37.422 0 66.973 28.344 66.973 63.418v272.75c0 35.074-29.551 63.418-66.973 63.418l-265.64-.004c-37.422 0-67.016-28.344-67.016-63.418v-272.75c0-35.074 29.594-63.418 67.016-63.418zm217.31 96.805c-10.859.266-21.625 4.426-30.047 12.5-29.922 28.512-59.828 57.027-89.75 85.543l-18.688-18.457v.043c-17.645-17.543-46.387-17.391-63.852.332-17.383 17.676-17.168 46.293.492 63.691l49.934 49.383c17.285 17.012 45.137 17.223 62.695.492l121.55-115.81c17.941-17.12 18.59-45.805 1.473-63.75-8.57-9.023-20.04-13.703-31.621-13.977a45.217 45.217 0 0 0-2.184 0zm.39 14.742a30.36 30.36 0 0 1 1.462 0c7.753.184 15.438 3.336 21.246 9.453 11.598 12.16 11.176 31.223-.985 42.824l-121.53 115.8a30.155 30.155 0 0 1-42.113-.332l-49.938-49.383c-11.965-11.789-12.109-30.789-.332-42.766 11.832-12.008 30.922-12.102 42.88-.219h.058l23.762 23.484a7.397 7.397 0 0 0 8.586 1.317 7.341 7.341 0 0 0 1.746-1.2c31.656-30.171 63.27-60.354 94.926-90.515 5.707-5.473 12.96-8.29 20.234-8.47z" fill="#ffe600"/>
</svg>
