<svg width="80" height="80" viewBox="0 0 752 752" xmlns="http://www.w3.org/2000/svg">
    <path d="M200.84 161.44v55.383h-19.379v14.801h19.379v71.512h-19.379v14.801h19.379v71.453l-19.379-.004v14.801h19.379v71.496h-19.379v14.758h19.379v44.891h187.04c15.434 32.613 48.477 55.238 86.688 55.238 52.941 0 95.965-43.418 95.965-96.688 0-47.57-34.316-87.273-79.359-95.227v-237.21zm14.812 14.801h260.71v220.96a91.188 91.188 0 0 0-1.793-.016c-52.941 0-95.98 43.418-95.98 96.688 0 9.243 1.297 18.18 3.715 26.652h-166.65v-30.09h19.383v-14.758h-19.383v-71.496h19.383v-14.8h-19.383v-71.454h19.383V303.13h-19.383v-71.512h19.383v-14.8h-19.383zm109.19 37.086-31.84 32.504-14.379-17.098-11.305 9.55 24.859 29.5 43.199-44.124zm42 21.305v14.801l78.23-.004v-14.8zm-42 85.051-31.84 32.504-14.379-17.039-11.305 9.496 24.859 29.555 43.199-44.137zm42 21.305v14.801h78.23v-14.801zm107.73 71.004c44.879 0 81.164 36.551 81.164 81.887s-36.289 81.875-81.164 81.875c-44.879 0-81.18-36.535-81.18-81.875 0-45.336 36.301-81.887 81.18-81.887zm-149.73 14.09-31.84 32.504-14.379-17.098-11.305 9.57 24.859 29.496 43.199-44.137zm138.8 12.949v68.547h48.172v-14.801h-33.371v-53.75z" fill="#ffe600"/>
</svg>
