<svg width="80" height="80" viewBox="0 0 752 752" xmlns="http://www.w3.org/2000/svg">
    <g fill="#ffe600">
        <path d="M194.95 579.33h362.1a29.721 29.721 0 0 0 20.988-8.707 29.736 29.736 0 0 0 8.707-20.984v-24.863a7.104 7.104 0 0 0-7.106-7.105h-24.117V309.4a24.48 24.48 0 0 0-7.164-17.273 24.472 24.472 0 0 0-17.273-7.165h-27.87v-90.406a21.912 21.912 0 0 0-6.415-15.469 21.894 21.894 0 0 0-15.465-6.414h-210.67a21.895 21.895 0 0 0-21.879 21.883v90.406h-27.848a24.464 24.464 0 0 0-24.437 24.438v27.09a7.103 7.103 0 0 0 7.106 7.101 7.102 7.102 0 0 0 7.101-7.101V309.4c.008-5.649 4.582-10.227 10.23-10.23h27.848v8.714h-22.258a7.103 7.103 0 0 0-7.105 7.102v186.88a7.104 7.104 0 0 0 7.105 7.105h298.96a7.104 7.104 0 0 0 7.106-7.105v-56.88a7.104 7.104 0 1 0-14.207 0v49.778h-284.76v-172.67h15.156v111.86a21.895 21.895 0 0 0 21.879 21.879h210.67a21.895 21.895 0 0 0 21.879-21.88v-111.86h15.156v99.212c0 3.922 3.18 7.102 7.101 7.102s7.106-3.18 7.106-7.102v-106.32a7.105 7.105 0 0 0-7.106-7.102H503.21v-8.714h27.871c5.645.003 10.223 4.582 10.227 10.23v208.27h-330.59v-157.5a7.103 7.103 0 0 0-7.105-7.102 7.102 7.102 0 0 0-7.102 7.102v157.5H172.36a7.104 7.104 0 0 0-7.105 7.105v24.863a29.725 29.725 0 0 0 29.695 29.691zm75.715-392.45h210.67a7.681 7.681 0 0 1 7.672 7.676v17.625h-226.01v-17.625a7.679 7.679 0 0 1 7.672-7.676zm210.67 254.75h-210.67a7.673 7.673 0 0 1-7.672-7.672v-207.57h226.01v207.57c-.004 4.238-3.437 7.672-7.672 7.672zm-301.87 90.246h39.93v11.152h.004a7.104 7.104 0 1 0 14.207 0v-11.137h19.89v11.152a7.105 7.105 0 0 0 7.102 7.106 7.106 7.106 0 0 0 7.106-7.106v-11.152h47.359a21.312 21.312 0 0 0 6.328 14.875 21.329 21.329 0 0 0 14.953 6.152h46.648a7.103 7.103 0 0 0 7.102-7.105 7.102 7.102 0 0 0-7.102-7.102h-46.648a7.11 7.11 0 0 1-7.106-6.82h93.523a7.106 7.106 0 0 1-7.101 6.82h-9a7.102 7.102 0 0 0-7.102 7.102 7.103 7.103 0 0 0 7.102 7.105h9a21.312 21.312 0 0 0 21.28-21.027h135.602v17.758c-.008 4.106-1.641 8.043-4.543 10.945s-6.84 4.535-10.945 4.543h-362.1a15.52 15.52 0 0 1-10.945-4.543 15.489 15.489 0 0 1-4.543-10.945z"/>
        <path d="M297.07 253.5a22.18 22.18 0 0 0-22.184 22.184 22.18 22.18 0 0 0 22.184 22.18 22.182 22.182 0 0 0 22.184-22.18A22.213 22.213 0 0 0 297.07 253.5zm0 30.156a7.974 7.974 0 1 1-.001-15.951 7.974 7.974 0 0 1 .001 15.951zM339 259.38h100.7a7.105 7.105 0 0 0 7.102-7.106 7.102 7.102 0 0 0-7.102-7.101H339a7.102 7.102 0 0 0-7.102 7.101A7.105 7.105 0 0 0 339 259.38zM470.02 268.57H339.01a7.103 7.103 0 0 0-7.102 7.106 7.102 7.102 0 0 0 7.102 7.101h131.01a7.104 7.104 0 1 0 0-14.207zM470.02 291.98H339.01c-3.922 0-7.102 3.18-7.102 7.102s3.18 7.105 7.102 7.105h131.01a7.103 7.103 0 1 0 0-14.207zM297.07 335.75a22.193 22.193 0 0 0-15.688 6.5 22.18 22.18 0 0 0 0 31.368 22.19 22.19 0 0 0 15.688 6.5c5.883 0 11.523-2.34 15.684-6.5 4.16-4.16 6.5-9.8 6.5-15.684a22.197 22.197 0 0 0-6.508-15.676 22.203 22.203 0 0 0-15.676-6.508zm0 30.156v.004c-3.227 0-6.133-1.945-7.367-4.926s-.555-6.41 1.726-8.691a7.975 7.975 0 0 1 13.614 5.64 7.985 7.985 0 0 1-7.973 7.957zM339 341.61h100.7a7.102 7.102 0 0 0 7.102-7.102 7.103 7.103 0 0 0-7.102-7.105H339a7.103 7.103 0 0 0-7.102 7.105A7.102 7.102 0 0 0 339 341.61zM470.02 350.81H339.01c-3.922 0-7.102 3.18-7.102 7.102s3.18 7.105 7.102 7.105h131.01a7.103 7.103 0 1 0 0-14.207zM470.02 374.21H339.01a7.103 7.103 0 0 0-7.102 7.106 7.102 7.102 0 0 0 7.102 7.101h131.01a7.104 7.104 0 1 0 0-14.207zM289.82 199.54c0 5.227-4.238 9.46-9.46 9.46-5.228 0-9.466-4.233-9.466-9.46 0-5.227 4.239-9.46 9.465-9.46 5.223 0 9.461 4.233 9.461 9.46M315.43 199.54a9.46 9.46 0 0 1-9.46 9.46 9.46 9.46 0 0 1-9.462-9.46 9.46 9.46 0 0 1 9.461-9.46 9.46 9.46 0 0 1 9.461 9.46M341.05 199.54c0 5.227-4.238 9.46-9.46 9.46-5.227 0-9.466-4.233-9.466-9.46 0-5.227 4.239-9.46 9.465-9.46 5.223 0 9.461 4.233 9.461 9.46"/>
    </g>
</svg>
