<svg width="124" height="124" viewBox="0 -50 700 700" xmlns="http://www.w3.org/2000/svg" fill="#ffe600">
    <path d="M119.22 150.39v28.984a95.502 95.502 0 0 0 92.969 0V150.39a35.584 35.584 0 0 0-10.426-25.121 35.586 35.586 0 0 0-25.121-10.426h-21.875a35.584 35.584 0 0 0-25.121 10.426 35.586 35.586 0 0 0-10.426 25.121z"/>
    <path d="M102.81 167.78v-17.391a52.05 52.05 0 0 1 9.664-30.133 52.05 52.05 0 0 1 25.336-18.965 35.539 35.539 0 0 1-7.547-24.801 35.56 35.56 0 0 1 11.297-23.332 35.549 35.549 0 0 1 52.032 48.133 52.053 52.053 0 0 1 25.336 18.965 52.051 52.051 0 0 1 9.664 30.133v17.391a95.703 95.703 0 0 0 32.715-67.777 95.717 95.717 0 0 0-26.41-70.473 95.698 95.698 0 0 0-138.39 0 95.699 95.699 0 0 0 6.305 138.25z"/>
    <path d="M184.84 79.297c0 10.57-8.57 19.141-19.141 19.141s-19.141-8.57-19.141-19.141 8.57-19.141 19.141-19.141 19.141 8.57 19.141 19.141m-8.2 404.143h-21.875a35.584 35.584 0 0 0-25.121 10.426 35.586 35.586 0 0 0-10.426 25.121v28.984a95.502 95.502 0 0 0 92.969 0v-28.984a35.584 35.584 0 0 0-10.426-25.121 35.586 35.586 0 0 0-25.121-10.426z"/>
    <path d="M165.7 368.59a95.676 95.676 0 0 0-69.199 29.559 95.663 95.663 0 0 0 6.309 138.223v-17.391a52.05 52.05 0 0 1 9.664-30.133 52.05 52.05 0 0 1 25.336-18.965 35.539 35.539 0 0 1-7.547-24.801 35.56 35.56 0 0 1 11.297-23.332 35.549 35.549 0 0 1 52.032 48.133 52.053 52.053 0 0 1 25.336 18.965 52.051 52.051 0 0 1 9.664 30.133v17.391a95.665 95.665 0 0 0 6.31-138.223 95.678 95.678 0 0 0-69.2-29.559z"/>
    <path d="M184.84 447.89c0 10.57-8.57 19.141-19.141 19.141s-19.141-8.57-19.141-19.141 8.57-19.141 19.141-19.141 19.141 8.57 19.141 19.141m302.97-297.5v28.984a95.502 95.502 0 0 0 92.969 0V150.39a35.584 35.584 0 0 0-10.426-25.121 35.586 35.586 0 0 0-25.121-10.426h-21.875a35.584 35.584 0 0 0-25.121 10.426 35.586 35.586 0 0 0-10.426 25.121z"/>
    <path d="M471.41 167.78v-17.391a52.05 52.05 0 0 1 9.664-30.133 52.05 52.05 0 0 1 25.336-18.965 35.539 35.539 0 0 1-7.547-24.801 35.56 35.56 0 0 1 11.297-23.332 35.549 35.549 0 0 1 52.032 48.133 52.053 52.053 0 0 1 25.336 18.965 52.051 52.051 0 0 1 9.664 30.133v17.391a95.703 95.703 0 0 0 32.715-67.777 95.717 95.717 0 0 0-26.41-70.473 95.698 95.698 0 0 0-138.39 0 95.699 95.699 0 0 0 6.305 138.25z"/>
    <path d="M553.44 79.297c0 10.57-8.57 19.141-19.141 19.141s-19.141-8.57-19.141-19.141 8.57-19.141 19.141-19.141 19.141 8.57 19.141 19.141m-8.21 404.143h-21.875a35.584 35.584 0 0 0-25.121 10.426 35.586 35.586 0 0 0-10.426 25.121v28.984a95.502 95.502 0 0 0 92.969 0v-28.984a35.584 35.584 0 0 0-10.426-25.121 35.586 35.586 0 0 0-25.121-10.426z"/>
    <path d="M534.3 368.59a95.676 95.676 0 0 0-69.199 29.559 95.663 95.663 0 0 0 6.309 138.223v-17.391a52.05 52.05 0 0 1 9.664-30.133 52.05 52.05 0 0 1 25.336-18.965 35.539 35.539 0 0 1-7.547-24.801 35.56 35.56 0 0 1 11.297-23.332 35.549 35.549 0 0 1 52.032 48.133 52.053 52.053 0 0 1 25.336 18.965 52.051 52.051 0 0 1 9.664 30.133v17.391a95.665 95.665 0 0 0 6.31-138.223 95.678 95.678 0 0 0-69.2-29.559z"/>
    <path d="M553.44 447.89c0 10.57-8.57 19.141-19.141 19.141s-19.141-8.57-19.141-19.141 8.57-19.141 19.141-19.141 19.141 8.57 19.141 19.141m43.75-259.43a263.598 263.598 0 0 1 0 183.07 112.833 112.833 0 0 1 13.562 10.852 281.889 281.889 0 0 0 0-204.77 113.01 113.01 0 0 1-13.562 10.852zM350 16.406a262.324 262.324 0 0 1 91.535 16.406 112.833 112.833 0 0 1 10.852-13.562 281.889 281.889 0 0 0-204.77 0 113.01 113.01 0 0 1 10.852 13.562 262.305 262.305 0 0 1 91.535-16.406zm0 527.184a262.324 262.324 0 0 1-91.535-16.406 112.833 112.833 0 0 1-10.852 13.562 281.889 281.889 0 0 0 204.77 0 113.01 113.01 0 0 1-10.852-13.562 262.305 262.305 0 0 1-91.535 16.406zM102.81 371.54a263.598 263.598 0 0 1 0-183.07 112.833 112.833 0 0 1-13.562-10.852 281.889 281.889 0 0 0 0 204.77 113.01 113.01 0 0 1 13.562-10.852zm293.67 17.84v-24.609h19.141c4.531 0 8.203-3.672 8.203-8.203s-3.672-8.203-8.203-8.203h-131.25c-4.531 0-8.203 3.672-8.203 8.203s3.672 8.203 8.203 8.203h19.141v24.609a8.202 8.202 0 0 0 8.203 8.203h76.562a8.202 8.202 0 0 0 8.203-8.203zm-73.82 51.95h54.688a8.202 8.202 0 0 0 8.203-8.203v-19.141h-71.094v19.14a8.202 8.202 0 0 0 8.203 8.204zM445.7 236.25a95.71 95.71 0 0 0-100.867-95.571c-49.523 2.602-89.293 43.531-90.508 93.164a95.828 95.828 0 0 0 20.98 62.246 78.691 78.691 0 0 1 16.098 35.863h117.32a79.598 79.598 0 0 1 16.012-35.93 95.943 95.943 0 0 0 20.969-59.773zm-51.625-18.453-48.453 48.508a8.189 8.189 0 0 1-5.8 2.406 8.191 8.191 0 0 1-5.806-2.406l-28.098-28.055a8.202 8.202 0 0 1 11.594-11.601l22.258 22.258 42.656-42.656a8.213 8.213 0 0 1 5.832-2.504 8.215 8.215 0 0 1 5.867 2.406 8.188 8.188 0 0 1 2.403 5.87 8.201 8.201 0 0 1-2.508 5.829z"/>
</svg>
