<svg width="120px" height="120px" viewBox="0 -50 700 700" xmlns="http://www.w3.org/2000/svg" fill="#ffe600">
    <path d="M369.7 54.715c-61.832 0-121.5 25.77-163.7 70.711-6.613 7.047-6.27 18.121.777 24.734 3.371 3.172 7.684 4.648 11.984 4.648 4.668.004 9.317-1.75 12.754-5.425 35.605-37.922 85.98-59.668 138.19-59.668 104.93 0 190.3 85.363 190.3 190.29s-85.363 190.29-190.3 190.29c-52.21 0-102.58-21.746-138.19-59.668-3.445-3.665-8.093-5.418-12.754-5.418-4.3 0-8.613 1.472-11.984 4.64-7.05 6.613-7.39 17.688-.777 24.738 42.203 44.938 101.87 70.711 163.7 70.711 124.23-.004 225.3-101.06 225.3-225.29S493.93 54.718 369.7 54.718z"/>
    <path d="M420.87 297.5h51.68c9.672 0 17.5-7.836 17.5-17.5s-7.828-17.5-17.5-17.5h-51.68c-9.672 0-17.5 7.836-17.5 17.5s7.828 17.5 17.5 17.5zM369.7 246.33c9.672 0 17.5-7.836 17.5-17.5v-80.32c0-9.664-7.828-17.5-17.5-17.5-9.664 0-17.5 7.836-17.5 17.5v80.324c0 9.66 7.836 17.496 17.5 17.496zM370.05 262.5h-.172c-9.664 0-17.406 7.836-17.406 17.5s7.922 17.5 17.578 17.5c9.672 0 17.5-7.836 17.5-17.5s-7.828-17.5-17.5-17.5zM300.44 280c0-9.664-7.836-17.5-17.5-17.5h-119.7c-9.664 0-17.5 7.836-17.5 17.5s7.836 17.5 17.5 17.5h119.7c9.664 0 17.5-7.836 17.5-17.5zM259.7 198.52c0-9.664-7.836-17.5-17.5-17.5H122.5c-9.664 0-17.5 7.836-17.5 17.5s7.836 17.5 17.5 17.5h119.7c9.664 0 17.5-7.836 17.5-17.5zM259.7 361.48c0-9.664-7.836-17.5-17.5-17.5H122.5c-9.664 0-17.5 7.836-17.5 17.5s7.836 17.5 17.5 17.5h119.7c9.664 0 17.5-7.836 17.5-17.5z"/>
</svg>
